<?xml version="1.0" standalone="no"?>
<!DOCTYPE svg PUBLIC "-//W3C//DTD SVG 20010904//EN"
 "http://www.w3.org/TR/2001/REC-SVG-20010904/DTD/svg10.dtd">
<svg version="1.0" xmlns="http://www.w3.org/2000/svg"
 width="512.000000pt" height="512.000000pt" viewBox="0 0 512.000000 512.000000"
 preserveAspectRatio="xMidYMid meet">

<g transform="translate(0.000000,512.000000) scale(0.100000,-0.100000)"
fill="#000000" stroke="none">
<path d="M3655 5038 c-27 -5 -185 -11 -350 -12 -248 -1 -325 -5 -445 -23 -214
-32 -639 -47 -975 -35 -266 9 -271 10 -363 41 -102 35 -135 35 -171 -2 -28
-31 -61 -128 -67 -202 -7 -70 11 -522 21 -547 6 -16 1 -18 -38 -18 -25 0 -80
-5 -123 -11 -61 -8 -83 -8 -102 2 -22 12 -26 11 -43 -10 -11 -13 -41 -34 -68
-46 -61 -29 -91 -66 -91 -115 0 -50 18 -63 72 -55 l43 7 1 -309 c1 -169 6
-404 13 -522 6 -118 10 -216 8 -218 -8 -7 -55 74 -96 166 -23 51 -69 136 -103
189 -34 53 -103 192 -158 316 -146 329 -215 472 -244 501 -51 51 -119 17 -131
-67 -4 -25 0 -164 9 -309 33 -562 31 -743 -9 -1254 -44 -549 -75 -1167 -75
-1480 0 -245 2 -274 20 -312 25 -56 58 -72 104 -51 48 23 89 79 216 288 207
342 271 428 482 651 l128 134 0 -225 c0 -281 -14 -549 -41 -795 -25 -225 -24
-416 2 -453 13 -17 16 -38 12 -85 -3 -51 0 -68 17 -96 24 -38 42 -38 145 -1
119 44 678 65 1510 58 618 -5 748 -2 955 28 271 38 411 94 521 205 155 157
175 282 158 979 -6 239 -9 452 -7 472 l3 37 56 -67 c31 -37 80 -103 109 -147
135 -202 270 -357 323 -370 35 -9 87 18 113 58 27 42 58 133 81 237 16 76 18
140 18 625 0 369 -4 576 -13 655 -31 279 -194 1569 -203 1602 -9 36 -49 78
-74 78 -36 0 -72 -55 -197 -308 -88 -176 -150 -316 -183 -412 l-50 -144 -7
128 c-19 343 -104 564 -233 604 -22 6 -98 20 -168 29 l-129 17 4 255 c3 284 0
304 -62 336 -32 17 -52 17 -125 3z m41 -234 c-3 -9 -6 -93 -6 -188 l0 -172
-377 -13 c-390 -13 -483 -19 -738 -51 -82 -11 -213 -24 -290 -30 -359 -27
-418 -33 -540 -55 -142 -26 -266 -45 -288 -45 -11 0 -15 49 -20 272 -4 150 -3
276 1 280 5 5 43 -3 85 -17 74 -25 83 -25 449 -31 410 -7 768 6 913 32 69 13
166 17 413 19 178 1 326 5 329 9 4 3 22 6 41 6 27 0 33 -3 28 -16z m304 -599
c109 -18 134 -31 156 -83 59 -138 72 -349 77 -1225 3 -596 3 -608 -16 -603
-55 14 -103 -47 -94 -122 5 -48 24 -72 77 -101 l35 -18 2 -134 c1 -74 7 -332
13 -574 14 -598 5 -685 -83 -781 -77 -84 -145 -118 -307 -154 -232 -51 -280
-54 -1155 -55 -819 -1 -1323 -17 -1430 -44 -56 -14 -54 -15 -48 25 3 19 0 61
-8 91 -11 49 -10 81 10 270 31 297 44 604 38 895 -4 198 -2 256 9 289 17 47
10 98 -15 126 -37 40 -117 720 -146 1233 -8 151 -23 386 -32 522 -9 136 -15
250 -12 253 3 2 111 9 240 15 153 6 272 17 344 30 196 36 297 49 475 60 96 6
231 18 300 26 371 43 527 56 850 69 394 15 578 12 720 -10z m849 -695 c44
-355 85 -711 91 -792 12 -180 13 -866 0 -1005 -10 -109 -36 -217 -50 -208 -19
12 -179 223 -234 308 -31 48 -86 122 -124 165 -37 42 -84 98 -105 125 l-38 47
-6 556 -6 557 22 16 c14 11 24 34 30 71 5 30 21 81 36 114 14 32 53 133 85
225 53 147 212 493 217 473 1 -4 38 -297 82 -652z m-4336 -37 c46 -104 111
-231 144 -283 33 -52 77 -131 97 -175 20 -44 49 -97 63 -118 31 -44 114 -91
149 -84 28 5 25 15 49 -216 9 -87 32 -262 50 -390 l34 -232 -57 -55 c-83 -80
-289 -304 -354 -385 -64 -80 -193 -276 -297 -450 l-71 -119 0 174 c0 96 4 245
10 330 5 85 14 247 20 360 6 113 22 354 35 535 47 625 49 723 30 1205 -4 89
-2 120 5 108 6 -9 48 -102 93 -205z"/>
<path d="M3441 3805 c-75 -21 -199 -81 -309 -149 -121 -75 -158 -112 -167
-168 -6 -32 -21 -57 -60 -101 -201 -221 -267 -717 -134 -994 31 -64 107 -143
166 -173 71 -36 168 -35 243 4 123 64 245 167 371 312 173 200 256 360 305
591 22 106 23 307 1 396 -31 127 -98 224 -182 266 -61 30 -159 37 -234 16z
m190 -228 c99 -67 122 -213 67 -437 -42 -174 -123 -311 -285 -480 -106 -111
-203 -190 -282 -230 -90 -45 -188 -8 -238 91 -67 134 -50 411 37 598 45 94
185 229 312 299 91 50 99 53 159 50 61 -3 63 -2 73 24 9 26 8 31 -22 90 -4 9
31 15 94 17 38 1 60 -5 85 -22z"/>
<path d="M3059 3071 c-24 -24 -29 -38 -29 -76 0 -38 5 -52 29 -75 34 -35 60
-31 96 12 29 34 32 66 10 108 -14 28 -51 60 -68 60 -5 0 -22 -13 -38 -29z"/>
<path d="M1750 3653 c-148 -72 -304 -316 -355 -558 -26 -120 -24 -283 4 -364
58 -166 190 -271 303 -240 87 23 172 95 301 257 138 173 152 195 187 290 44
123 62 213 62 322 1 115 -23 187 -79 242 -53 52 -102 69 -187 68 -39 0 -96 2
-126 5 -46 4 -64 1 -110 -22z m158 -178 c19 -22 30 -25 86 -25 95 0 112 -17
109 -108 -2 -46 -13 -104 -33 -166 -27 -85 -40 -106 -116 -203 -159 -200 -255
-283 -311 -268 -46 11 -100 77 -114 138 -10 46 -9 71 5 151 19 112 46 185 113
297 46 79 91 124 178 182 49 33 56 33 83 2z"/>
<path d="M1712 3259 c-54 -57 -24 -179 43 -179 36 0 65 44 65 100 0 84 -62
129 -108 79z"/>
<path d="M3113 2058 c-12 -13 -59 -81 -105 -153 -47 -71 -106 -153 -131 -181
-68 -75 -175 -160 -243 -191 -54 -26 -68 -28 -179 -28 -100 1 -129 5 -176 23
-86 34 -177 97 -251 174 -74 76 -95 81 -122 30 -13 -26 -14 -26 -21 -4 -10 34
-49 56 -74 43 -39 -21 -43 -66 -22 -222 40 -284 51 -397 61 -599 12 -234 14
-247 42 -278 21 -21 28 -22 192 -22 94 0 200 5 236 10 36 5 128 12 205 16 77
3 181 14 230 24 77 16 113 18 250 11 147 -7 188 -3 205 18 3 4 18 11 35 16 16
6 40 26 53 45 26 38 27 76 3 285 -6 50 -18 212 -26 360 -9 149 -20 333 -25
410 -8 141 -18 185 -47 217 -22 25 -65 22 -90 -4z m22 -763 c9 -148 18 -291
22 -316 l5 -46 -52 -5 c-29 -3 -112 -3 -184 -1 -103 4 -145 2 -196 -12 -37
-10 -135 -20 -230 -25 -91 -5 -217 -14 -280 -20 -63 -7 -138 -9 -166 -5 l-51
6 -7 152 c-3 84 -13 204 -20 267 -8 63 -18 141 -22 173 l-7 58 55 -53 c137
-133 322 -198 513 -182 96 8 161 30 246 86 84 53 238 205 297 292 l47 68 7
-83 c4 -46 14 -205 23 -354z"/>
</g>
</svg>
